<svg width="22" height="22" viewBox="0 0 22 22" fill="none" xmlns="http://www.w3.org/2000/svg">
<path d="M20.8438 7.77344C20.9641 7.77344 21.0625 7.675 21.0625 7.55469V5.91406C21.0625 5.79375 20.9641 5.69531 20.8438 5.69531H16.3594V1.15625C16.3594 1.03594 16.2609 0.9375 16.1406 0.9375H14.3906C14.2703 0.9375 14.1719 1.03594 14.1719 1.15625V5.69531H7.9375V1.15625C7.9375 1.03594 7.83906 0.9375 7.71875 0.9375H5.96875C5.84844 0.9375 5.75 1.03594 5.75 1.15625V5.69531H1.15625C1.03594 5.69531 0.9375 5.79375 0.9375 5.91406V7.55469C0.9375 7.675 1.03594 7.77344 1.15625 7.77344H5.75V14.2266H1.15625C1.03594 14.2266 0.9375 14.325 0.9375 14.4453V16.0859C0.9375 16.2063 1.03594 16.3047 1.15625 16.3047H5.75V20.8438C5.75 20.9641 5.84844 21.0625 5.96875 21.0625H7.71875C7.83906 21.0625 7.9375 20.9641 7.9375 20.8438V16.3047H14.1719V20.8438C14.1719 20.9641 14.2703 21.0625 14.3906 21.0625H16.1406C16.2609 21.0625 16.3594 20.9641 16.3594 20.8438V16.3047H20.8438C20.9641 16.3047 21.0625 16.2063 21.0625 16.0859V14.4453C21.0625 14.325 20.9641 14.2266 20.8438 14.2266H16.3594V7.77344H20.8438ZM14.1719 14.2266H7.9375V7.77344H14.1719V14.2266Z" fill="#009A8D"/>
</svg>
