<svg width="22" height="22" viewBox="0 0 22 22" fill="none" xmlns="http://www.w3.org/2000/svg">
<path d="M16 12.7512C16.2652 12.7512 16.5196 12.6458 16.7071 12.4583C16.8946 12.2707 17 12.0164 17 11.7512C17 11.4859 16.8946 11.2316 16.7071 11.0441C16.5196 10.8565 16.2652 10.7512 16 10.7512C15.7348 10.7512 15.4804 10.8565 15.2929 11.0441C15.1054 11.2316 15 11.4859 15 11.7512C15 12.0164 15.1054 12.2707 15.2929 12.4583C15.4804 12.6458 15.7348 12.7512 16 12.7512ZM16 16.7512C16.2652 16.7512 16.5196 16.6458 16.7071 16.4583C16.8946 16.2707 17 16.0164 17 15.7512C17 15.4859 16.8946 15.2316 16.7071 15.0441C16.5196 14.8565 16.2652 14.7512 16 14.7512C15.7348 14.7512 15.4804 14.8565 15.2929 15.0441C15.1054 15.2316 15 15.4859 15 15.7512C15 16.0164 15.1054 16.2707 15.2929 16.4583C15.4804 16.6458 15.7348 16.7512 16 16.7512ZM12 11.7512C12 12.0164 11.8946 12.2707 11.7071 12.4583C11.5196 12.6458 11.2652 12.7512 11 12.7512C10.7348 12.7512 10.4804 12.6458 10.2929 12.4583C10.1054 12.2707 10 12.0164 10 11.7512C10 11.4859 10.1054 11.2316 10.2929 11.0441C10.4804 10.8565 10.7348 10.7512 11 10.7512C11.2652 10.7512 11.5196 10.8565 11.7071 11.0441C11.8946 11.2316 12 11.4859 12 11.7512ZM12 15.7512C12 16.0164 11.8946 16.2707 11.7071 16.4583C11.5196 16.6458 11.2652 16.7512 11 16.7512C10.7348 16.7512 10.4804 16.6458 10.2929 16.4583C10.1054 16.2707 10 16.0164 10 15.7512C10 15.4859 10.1054 15.2316 10.2929 15.0441C10.4804 14.8565 10.7348 14.7512 11 14.7512C11.2652 14.7512 11.5196 14.8565 11.7071 15.0441C11.8946 15.2316 12 15.4859 12 15.7512ZM6 12.7512C6.26522 12.7512 6.51957 12.6458 6.70711 12.4583C6.89464 12.2707 7 12.0164 7 11.7512C7 11.4859 6.89464 11.2316 6.70711 11.0441C6.51957 10.8565 6.26522 10.7512 6 10.7512C5.73478 10.7512 5.48043 10.8565 5.29289 11.0441C5.10536 11.2316 5 11.4859 5 11.7512C5 12.0164 5.10536 12.2707 5.29289 12.4583C5.48043 12.6458 5.73478 12.7512 6 12.7512ZM6 16.7512C6.26522 16.7512 6.51957 16.6458 6.70711 16.4583C6.89464 16.2707 7 16.0164 7 15.7512C7 15.4859 6.89464 15.2316 6.70711 15.0441C6.51957 14.8565 6.26522 14.7512 6 14.7512C5.73478 14.7512 5.48043 14.8565 5.29289 15.0441C5.10536 15.2316 5 15.4859 5 15.7512C5 16.0164 5.10536 16.2707 5.29289 16.4583C5.48043 16.6458 5.73478 16.7512 6 16.7512Z" fill="#009A8D"/>
<path fill-rule="evenodd" clip-rule="evenodd" d="M6 0.50116C6.19891 0.50116 6.38968 0.580177 6.53033 0.72083C6.67098 0.861482 6.75 1.05225 6.75 1.25116V2.01416C7.412 2.00116 8.141 2.00116 8.943 2.00116H13.056C13.859 2.00116 14.588 2.00116 15.25 2.01416V1.25116C15.25 1.05225 15.329 0.861482 15.4697 0.72083C15.6103 0.580177 15.8011 0.50116 16 0.50116C16.1989 0.50116 16.3897 0.580177 16.5303 0.72083C16.671 0.861482 16.75 1.05225 16.75 1.25116V2.07816C17.01 2.09816 17.256 2.12316 17.489 2.15416C18.661 2.31216 19.61 2.64416 20.359 3.39216C21.107 4.14116 21.439 5.09016 21.597 6.26216C21.75 7.40216 21.75 8.85716 21.75 10.6952V12.8072C21.75 14.6452 21.75 16.1012 21.597 17.2402C21.439 18.4122 21.107 19.3612 20.359 20.1102C19.61 20.8582 18.661 21.1902 17.489 21.3482C16.349 21.5012 14.894 21.5012 13.056 21.5012H8.944C7.106 21.5012 5.65 21.5012 4.511 21.3482C3.339 21.1902 2.39 20.8582 1.641 20.1102C0.893 19.3612 0.561 18.4122 0.403 17.2402C0.25 16.1002 0.25 14.6452 0.25 12.8072V10.6952C0.25 8.85716 0.25 7.40116 0.403 6.26216C0.561 5.09016 0.893 4.14116 1.641 3.39216C2.39 2.64416 3.339 2.31216 4.511 2.15416C4.744 2.12316 4.991 2.09816 5.25 2.07816V1.25116C5.25 1.05225 5.32902 0.861482 5.46967 0.72083C5.61032 0.580177 5.80109 0.50116 6 0.50116ZM4.71 3.64116C3.705 3.77616 3.125 4.03016 2.702 4.45316C2.279 4.87616 2.025 5.45616 1.89 6.46216C1.867 6.63216 1.848 6.81216 1.832 7.00116H20.168C20.152 6.81116 20.133 6.63216 20.11 6.46116C19.975 5.45616 19.721 4.87616 19.298 4.45316C18.875 4.03016 18.295 3.77616 17.289 3.64116C16.262 3.50316 14.907 3.50116 13 3.50116H9C7.093 3.50116 5.739 3.50316 4.71 3.64116ZM1.75 10.7512C1.75 9.89716 1.75 9.15416 1.763 8.50116H20.237C20.25 9.15416 20.25 9.89716 20.25 10.7512V12.7512C20.25 14.6582 20.248 16.0132 20.11 17.0412C19.975 18.0462 19.721 18.6262 19.298 19.0492C18.875 19.4722 18.295 19.7262 17.289 19.8612C16.262 19.9992 14.907 20.0012 13 20.0012H9C7.093 20.0012 5.739 19.9992 4.71 19.8612C3.705 19.7262 3.125 19.4722 2.702 19.0492C2.279 18.6262 2.025 18.0462 1.89 17.0402C1.752 16.0132 1.75 14.6582 1.75 12.7512V10.7512Z" fill="#009A8D"/>
</svg>
