<svg width="24" height="25" viewBox="0 0 24 25" fill="none" xmlns="http://www.w3.org/2000/svg">
<path d="M12 22.7535C6.21 22.7535 1.5 18.0435 1.5 12.2535C1.5 6.46348 6.21 1.75348 12 1.75348C17.79 1.75348 22.5 6.46348 22.5 12.2535C22.5 18.0435 17.79 22.7535 12 22.7535ZM12 3.25348C7.035 3.25348 3 7.28848 3 12.2535C3 17.2185 7.035 21.2535 12 21.2535C16.965 21.2535 21 17.2185 21 12.2535C21 7.28848 16.965 3.25348 12 3.25348Z" fill="#009A8D"/>
<path d="M15 16.0035C14.865 16.0035 14.73 15.9735 14.61 15.8985L10.86 13.6485C10.749 13.5817 10.6573 13.4871 10.5942 13.3739C10.531 13.2608 10.4986 13.1331 10.5 13.0035V7.00348C10.5 6.58348 10.83 6.25348 11.25 6.25348C11.67 6.25348 12 6.58348 12 7.00348V12.5835L15.39 14.6085C15.5297 14.6941 15.6376 14.8228 15.6975 14.9753C15.7573 15.1277 15.7658 15.2955 15.7218 15.4532C15.6777 15.611 15.5833 15.75 15.4531 15.8493C15.3229 15.9486 15.1638 16.0027 15 16.0035Z" fill="#009A8D"/>
</svg>
